<mxfile host="app.diagrams.net" modified="2024-01-13T04:39:14.381Z" agent="Mozilla/5.0 (X11; Ubuntu; Linux x86_64; rv:109.0) Gecko/20100101 Firefox/118.0" etag="T-3iMj5Ekl3RTz5qZFXc" version="22.1.18" type="github" pages="2">
  <diagram id="prtHgNgQTEPvFCAcTncT" name="Page-1">
    <mxGraphModel dx="5077" dy="2940" grid="1" gridSize="10" guides="1" tooltips="1" connect="1" arrows="1" fold="1" page="1" pageScale="1" pageWidth="827" pageHeight="1169" math="0" shadow="0">
      <root>
        <mxCell id="0" />
        <mxCell id="1" parent="0" />
        <mxCell id="dNxyNK7c78bLwvsdeMH5-11" value="Orgchart" style="swimlane;html=1;startSize=20;horizontal=1;containerType=tree;glass=0;" parent="1" vertex="1">
          <mxGeometry x="110" y="280" width="710" height="570" as="geometry" />
        </mxCell>
        <UserObject label="%name%&lt;br&gt;&lt;i style=&quot;color: gray&quot;&gt;%position%&lt;/i&gt;&lt;br&gt;&lt;a href=&quot;mailto:%email%&quot;&gt;Email&lt;/a&gt;" name="Tessa Miller" position="CFO" location="Office 1" email="me@example.com" placeholders="1" link="https://www.draw.io" id="dNxyNK7c78bLwvsdeMH5-12">
          <mxCell style="label;image=https://cdn3.iconfinder.com/data/icons/user-avatars-1/512/users-3-128.png;whiteSpace=wrap;html=1;rounded=0;glass=0;treeMoving=1;treeFolding=1;" parent="dNxyNK7c78bLwvsdeMH5-11" vertex="1">
            <mxGeometry x="260" y="50" width="180" height="70" as="geometry" />
          </mxCell>
        </UserObject>
        <mxCell id="dNxyNK7c78bLwvsdeMH5-13" value="" style="endArrow=blockThin;endFill=1;fontSize=11;edgeStyle=elbowEdgeStyle;elbow=vertical;rounded=0;" parent="dNxyNK7c78bLwvsdeMH5-11" source="dNxyNK7c78bLwvsdeMH5-12" target="dNxyNK7c78bLwvsdeMH5-14" edge="1">
          <mxGeometry relative="1" as="geometry" />
        </mxCell>
        <UserObject label="%name%&lt;br&gt;&lt;i style=&quot;color: gray&quot;&gt;%position%&lt;/i&gt;&lt;br&gt;&lt;a href=&quot;mailto:%email%&quot;&gt;Email&lt;/a&gt;" name="Edward Morrison" position="Brand Manager" location="Office 2" email="me@example.com" placeholders="1" link="https://www.draw.io" id="dNxyNK7c78bLwvsdeMH5-14">
          <mxCell style="label;image=https://cdn3.iconfinder.com/data/icons/user-avatars-1/512/users-10-3-128.png;whiteSpace=wrap;html=1;rounded=0;glass=0;treeFolding=1;treeMoving=1;" parent="dNxyNK7c78bLwvsdeMH5-11" vertex="1">
            <mxGeometry x="40" y="180" width="180" height="80" as="geometry" />
          </mxCell>
        </UserObject>
        <mxCell id="dNxyNK7c78bLwvsdeMH5-15" value="" style="endArrow=blockThin;endFill=1;fontSize=11;edgeStyle=elbowEdgeStyle;elbow=vertical;rounded=0;" parent="dNxyNK7c78bLwvsdeMH5-11" source="dNxyNK7c78bLwvsdeMH5-12" target="dNxyNK7c78bLwvsdeMH5-16" edge="1">
          <mxGeometry relative="1" as="geometry" />
        </mxCell>
        <UserObject label="%name%&lt;br&gt;&lt;i style=&quot;color: gray&quot;&gt;%position%&lt;/i&gt;&lt;br&gt;&lt;a href=&quot;mailto:%email%&quot;&gt;Email&lt;/a&gt;" name="Evan Valet" position="HR Director" location="Office 4" email="me@example.com" placeholders="1" link="https://www.draw.io" id="dNxyNK7c78bLwvsdeMH5-16">
          <mxCell style="label;image=https://cdn3.iconfinder.com/data/icons/user-avatars-1/512/users-9-2-128.png;whiteSpace=wrap;html=1;rounded=0;glass=0;treeFolding=1;treeMoving=1;" parent="dNxyNK7c78bLwvsdeMH5-11" vertex="1">
            <mxGeometry x="260" y="180" width="180" height="80" as="geometry" />
          </mxCell>
        </UserObject>
        <mxCell id="dNxyNK7c78bLwvsdeMH5-17" value="" style="endArrow=blockThin;endFill=1;fontSize=11;edgeStyle=elbowEdgeStyle;elbow=vertical;rounded=0;" parent="dNxyNK7c78bLwvsdeMH5-11" source="dNxyNK7c78bLwvsdeMH5-12" target="dNxyNK7c78bLwvsdeMH5-18" edge="1">
          <mxGeometry relative="1" as="geometry" />
        </mxCell>
        <UserObject label="%name%&lt;br&gt;&lt;i style=&quot;color: gray&quot;&gt;%position%&lt;/i&gt;&lt;br&gt;&lt;a href=&quot;mailto:%email%&quot;&gt;Email&lt;/a&gt;" name="Alison Donovan" position="System Admin" location="Office 3" email="me@example.com" placeholders="1" link="https://www.draw.io" id="dNxyNK7c78bLwvsdeMH5-18">
          <mxCell style="label;image=https://cdn3.iconfinder.com/data/icons/user-avatars-1/512/users-2-128.png;whiteSpace=wrap;html=1;rounded=0;glass=0;" parent="dNxyNK7c78bLwvsdeMH5-11" vertex="1">
            <mxGeometry x="490" y="180" width="180" height="80" as="geometry" />
          </mxCell>
        </UserObject>
        <mxCell id="6WTnwCyX4lFoBoX-r3jb-1" value="Text" style="text;html=1;align=center;verticalAlign=middle;resizable=0;points=[];autosize=1;strokeColor=none;fillColor=none;" vertex="1" parent="1">
          <mxGeometry x="746" y="1098" width="50" height="30" as="geometry" />
        </mxCell>
        <mxCell id="6WTnwCyX4lFoBoX-r3jb-2" value="Text" style="text;html=1;align=center;verticalAlign=middle;resizable=0;points=[];autosize=1;strokeColor=none;fillColor=none;" vertex="1" parent="1">
          <mxGeometry x="386" y="948" width="50" height="30" as="geometry" />
        </mxCell>
      </root>
    </mxGraphModel>
  </diagram>
  <diagram id="f59HWoemwTJGlcHS8Leu" name="Seite-2">
    <mxGraphModel dx="741" dy="1260" grid="0" gridSize="10" guides="1" tooltips="1" connect="1" arrows="1" fold="1" page="1" pageScale="1" pageWidth="10000" pageHeight="11169" math="0" shadow="0">
      <root>
        <mxCell id="0" />
        <mxCell id="1" parent="0" />
        <mxCell id="_24VUgPDZVP4WbBdwgEu-6" value="" style="edgeStyle=orthogonalEdgeStyle;rounded=0;orthogonalLoop=1;jettySize=auto;html=1;" edge="1" parent="1" source="_24VUgPDZVP4WbBdwgEu-1" target="_24VUgPDZVP4WbBdwgEu-5">
          <mxGeometry relative="1" as="geometry" />
        </mxCell>
        <mxCell id="_24VUgPDZVP4WbBdwgEu-1" value="&lt;div&gt;main.py&lt;br&gt;&lt;ul&gt;&lt;li&gt;fastapi setup&lt;/li&gt;&lt;li&gt;gunicorn uvicorn start&lt;/li&gt;&lt;li&gt;other setup (celery, redis, postgres)&lt;/li&gt;&lt;li&gt;endpoints&lt;br&gt;&lt;/li&gt;&lt;/ul&gt;&lt;/div&gt;" style="whiteSpace=wrap;html=1;aspect=fixed;" vertex="1" parent="1">
          <mxGeometry x="411" y="197" width="184" height="184" as="geometry" />
        </mxCell>
        <mxCell id="_24VUgPDZVP4WbBdwgEu-14" style="edgeStyle=orthogonalEdgeStyle;rounded=0;orthogonalLoop=1;jettySize=auto;html=1;entryX=0.567;entryY=-0.023;entryDx=0;entryDy=0;entryPerimeter=0;" edge="1" parent="1" source="_24VUgPDZVP4WbBdwgEu-5" target="_24VUgPDZVP4WbBdwgEu-43">
          <mxGeometry relative="1" as="geometry" />
        </mxCell>
        <mxCell id="_24VUgPDZVP4WbBdwgEu-5" value="&lt;div&gt;/upload/&lt;/div&gt;&lt;div&gt;&lt;ul&gt;&lt;li&gt;auth&lt;/li&gt;&lt;li&gt;pydantic validation&lt;br&gt;&lt;/li&gt;&lt;/ul&gt;&lt;/div&gt;" style="ellipse;shape=cloud;whiteSpace=wrap;html=1;" vertex="1" parent="1">
          <mxGeometry x="360" y="520" width="182.5" height="120" as="geometry" />
        </mxCell>
        <mxCell id="_24VUgPDZVP4WbBdwgEu-11" value="check what to do" style="shape=step;perimeter=stepPerimeter;whiteSpace=wrap;html=1;fixedSize=1;" vertex="1" parent="1">
          <mxGeometry x="430" y="850" width="140" height="60" as="geometry" />
        </mxCell>
        <mxCell id="_24VUgPDZVP4WbBdwgEu-23" style="edgeStyle=orthogonalEdgeStyle;rounded=0;orthogonalLoop=1;jettySize=auto;html=1;exitX=1;exitY=0.25;exitDx=0;exitDy=0;entryX=0;entryY=0.833;entryDx=0;entryDy=0;entryPerimeter=0;" edge="1" parent="1" source="_24VUgPDZVP4WbBdwgEu-11" target="_24VUgPDZVP4WbBdwgEu-33">
          <mxGeometry relative="1" as="geometry">
            <mxPoint x="667.97" y="621.6499999999999" as="targetPoint" />
            <Array as="points">
              <mxPoint x="612" y="867" />
              <mxPoint x="612" y="1055" />
            </Array>
          </mxGeometry>
        </mxCell>
        <mxCell id="_24VUgPDZVP4WbBdwgEu-27" value="&lt;div&gt;create dynamic endpoint&amp;nbsp;&lt;/div&gt;&lt;div&gt;(put endpoint -&amp;gt; cancel order)&lt;br&gt;&lt;/div&gt;" style="shape=step;perimeter=stepPerimeter;whiteSpace=wrap;html=1;fixedSize=1;" vertex="1" parent="1">
          <mxGeometry x="1150" y="820" width="190" height="75" as="geometry" />
        </mxCell>
        <mxCell id="_24VUgPDZVP4WbBdwgEu-28" value="result: what to do" style="swimlane;fontStyle=0;childLayout=stackLayout;horizontal=1;startSize=30;horizontalStack=0;resizeParent=1;resizeParentMax=0;resizeLast=0;collapsible=1;marginBottom=0;whiteSpace=wrap;html=1;" vertex="1" parent="1">
          <mxGeometry x="840" y="970" width="140" height="150" as="geometry" />
        </mxCell>
        <mxCell id="_24VUgPDZVP4WbBdwgEu-34" value="&lt;div&gt;split_at_start&lt;br&gt;&lt;/div&gt;" style="text;strokeColor=none;fillColor=none;align=left;verticalAlign=middle;spacingLeft=4;spacingRight=4;overflow=hidden;points=[[0,0.5],[1,0.5]];portConstraint=eastwest;rotatable=0;whiteSpace=wrap;html=1;fontStyle=4" vertex="1" parent="_24VUgPDZVP4WbBdwgEu-28">
          <mxGeometry y="30" width="140" height="30" as="geometry" />
        </mxCell>
        <mxCell id="_24VUgPDZVP4WbBdwgEu-33" value="&lt;div&gt;&amp;nbsp;split_at_end &lt;br&gt;&lt;/div&gt;" style="text;strokeColor=none;fillColor=none;align=left;verticalAlign=middle;spacingLeft=4;spacingRight=4;overflow=hidden;points=[[0,0.5],[1,0.5]];portConstraint=eastwest;rotatable=0;whiteSpace=wrap;html=1;fontStyle=4" vertex="1" parent="_24VUgPDZVP4WbBdwgEu-28">
          <mxGeometry y="60" width="140" height="30" as="geometry" />
        </mxCell>
        <mxCell id="_24VUgPDZVP4WbBdwgEu-35" value="&lt;div&gt;split_static&lt;br&gt;&lt;/div&gt;" style="text;strokeColor=none;fillColor=none;align=left;verticalAlign=middle;spacingLeft=4;spacingRight=4;overflow=hidden;points=[[0,0.5],[1,0.5]];portConstraint=eastwest;rotatable=0;whiteSpace=wrap;html=1;fontStyle=4" vertex="1" parent="_24VUgPDZVP4WbBdwgEu-28">
          <mxGeometry y="90" width="140" height="30" as="geometry" />
        </mxCell>
        <mxCell id="_24VUgPDZVP4WbBdwgEu-36" value="&lt;div&gt;no split&lt;/div&gt;" style="text;strokeColor=none;fillColor=none;align=left;verticalAlign=middle;spacingLeft=4;spacingRight=4;overflow=hidden;points=[[0,0.5],[1,0.5]];portConstraint=eastwest;rotatable=0;whiteSpace=wrap;html=1;fontStyle=4" vertex="1" parent="_24VUgPDZVP4WbBdwgEu-28">
          <mxGeometry y="120" width="140" height="30" as="geometry" />
        </mxCell>
        <mxCell id="_24VUgPDZVP4WbBdwgEu-37" value="&lt;div&gt;response:&lt;br&gt;&lt;ul&gt;&lt;li&gt;code 200&lt;/li&gt;&lt;li&gt;dynamic endpoint&lt;/li&gt;&lt;li&gt;result of what will done&lt;/li&gt;&lt;/ul&gt;&lt;/div&gt;" style="ellipse;shape=cloud;whiteSpace=wrap;html=1;" vertex="1" parent="1">
          <mxGeometry x="1080" y="460" width="200" height="157.5" as="geometry" />
        </mxCell>
        <mxCell id="_24VUgPDZVP4WbBdwgEu-39" style="edgeStyle=orthogonalEdgeStyle;rounded=0;orthogonalLoop=1;jettySize=auto;html=1;exitX=1;exitY=0.5;exitDx=0;exitDy=0;entryX=0;entryY=0.5;entryDx=0;entryDy=0;" edge="1" parent="1" source="_24VUgPDZVP4WbBdwgEu-34" target="_24VUgPDZVP4WbBdwgEu-27">
          <mxGeometry relative="1" as="geometry">
            <mxPoint x="960" y="730" as="targetPoint" />
            <Array as="points">
              <mxPoint x="1070" y="1015" />
              <mxPoint x="1070" y="858" />
            </Array>
          </mxGeometry>
        </mxCell>
        <mxCell id="_24VUgPDZVP4WbBdwgEu-42" style="edgeStyle=orthogonalEdgeStyle;rounded=0;orthogonalLoop=1;jettySize=auto;html=1;exitX=1;exitY=0.5;exitDx=0;exitDy=0;entryX=0.083;entryY=0.563;entryDx=0;entryDy=0;entryPerimeter=0;" edge="1" parent="1" source="_24VUgPDZVP4WbBdwgEu-27" target="_24VUgPDZVP4WbBdwgEu-37">
          <mxGeometry relative="1" as="geometry" />
        </mxCell>
        <mxCell id="_24VUgPDZVP4WbBdwgEu-45" value="" style="edgeStyle=orthogonalEdgeStyle;rounded=0;orthogonalLoop=1;jettySize=auto;html=1;" edge="1" parent="1" source="_24VUgPDZVP4WbBdwgEu-43" target="_24VUgPDZVP4WbBdwgEu-11">
          <mxGeometry relative="1" as="geometry" />
        </mxCell>
        <mxCell id="_24VUgPDZVP4WbBdwgEu-47" style="edgeStyle=orthogonalEdgeStyle;rounded=0;orthogonalLoop=1;jettySize=auto;html=1;exitX=1;exitY=0.5;exitDx=0;exitDy=0;" edge="1" parent="1" source="_24VUgPDZVP4WbBdwgEu-43" target="_24VUgPDZVP4WbBdwgEu-46">
          <mxGeometry relative="1" as="geometry" />
        </mxCell>
        <mxCell id="_24VUgPDZVP4WbBdwgEu-43" value="&lt;div&gt;pdf validation&lt;/div&gt;" style="shape=step;perimeter=stepPerimeter;whiteSpace=wrap;html=1;fixedSize=1;" vertex="1" parent="1">
          <mxGeometry x="430" y="710" width="140" height="60" as="geometry" />
        </mxCell>
        <mxCell id="_24VUgPDZVP4WbBdwgEu-46" value="code 307 validation error" style="ellipse;shape=cloud;whiteSpace=wrap;html=1;" vertex="1" parent="1">
          <mxGeometry x="754" y="556" width="210" height="110" as="geometry" />
        </mxCell>
        <mxCell id="_24VUgPDZVP4WbBdwgEu-48" style="edgeStyle=orthogonalEdgeStyle;rounded=0;orthogonalLoop=1;jettySize=auto;html=1;entryX=0.25;entryY=0.25;entryDx=0;entryDy=0;entryPerimeter=0;" edge="1" parent="1" source="_24VUgPDZVP4WbBdwgEu-5" target="_24VUgPDZVP4WbBdwgEu-46">
          <mxGeometry relative="1" as="geometry">
            <Array as="points">
              <mxPoint x="640" y="580" />
              <mxPoint x="640" y="574" />
              <mxPoint x="710" y="574" />
              <mxPoint x="710" y="583" />
            </Array>
          </mxGeometry>
        </mxCell>
        <mxCell id="_24VUgPDZVP4WbBdwgEu-49" value="&lt;div&gt;pdf_handler.py&lt;/div&gt;&lt;div&gt;&lt;br&gt;&lt;/div&gt;&lt;div&gt;functions:&lt;br&gt;&lt;ul&gt;&lt;li&gt;split_at_start (dummy)&lt;/li&gt;&lt;li&gt;split_at_end (dummy)&lt;/li&gt;&lt;li&gt;split_static (dummy)&lt;br&gt;&lt;/li&gt;&lt;/ul&gt;&lt;/div&gt;" style="whiteSpace=wrap;html=1;aspect=fixed;" vertex="1" parent="1">
          <mxGeometry x="1364" y="950" width="257" height="257" as="geometry" />
        </mxCell>
        <mxCell id="_24VUgPDZVP4WbBdwgEu-50" style="edgeStyle=orthogonalEdgeStyle;rounded=0;orthogonalLoop=1;jettySize=auto;html=1;exitX=1;exitY=0.5;exitDx=0;exitDy=0;entryX=0;entryY=0.5;entryDx=0;entryDy=0;" edge="1" parent="1" source="_24VUgPDZVP4WbBdwgEu-36" target="_24VUgPDZVP4WbBdwgEu-49">
          <mxGeometry relative="1" as="geometry" />
        </mxCell>
        <mxCell id="_24VUgPDZVP4WbBdwgEu-52" value="&lt;div style=&quot;color: rgb(204, 204, 204); background-color: rgb(31, 31, 31); font-family: &amp;quot;Droid Sans Mono&amp;quot;, &amp;quot;monospace&amp;quot;, monospace; font-weight: normal; font-size: 14px; line-height: 19px;&quot;&gt;&lt;div&gt;&lt;span style=&quot;color: #c586c0;&quot;&gt;import&lt;/span&gt;&lt;span style=&quot;color: #cccccc;&quot;&gt; &lt;/span&gt;&lt;span style=&quot;color: #4ec9b0;&quot;&gt;pydantic&lt;/span&gt;&lt;/div&gt;&lt;br&gt;&lt;div&gt;&lt;span style=&quot;color: #569cd6;&quot;&gt;class&lt;/span&gt;&lt;span style=&quot;color: #cccccc;&quot;&gt; &lt;/span&gt;&lt;span style=&quot;color: #4ec9b0;&quot;&gt;Job&lt;/span&gt;&lt;span style=&quot;color: #cccccc;&quot;&gt;(&lt;/span&gt;&lt;span style=&quot;color: #4ec9b0;&quot;&gt;BaseModel&lt;/span&gt;&lt;span style=&quot;color: #cccccc;&quot;&gt;):&lt;/span&gt;&lt;/div&gt;&lt;div&gt;&lt;span style=&quot;color: #cccccc;&quot;&gt;    &lt;/span&gt;&lt;span style=&quot;color: #9cdcfe;&quot;&gt;mainPdfBase64&lt;/span&gt;&lt;span style=&quot;color: #cccccc;&quot;&gt;: &lt;/span&gt;&lt;span style=&quot;color: #4ec9b0;&quot;&gt;str&lt;/span&gt;&lt;span style=&quot;color: #cccccc;&quot;&gt; &lt;/span&gt;&lt;span style=&quot;color: #d4d4d4;&quot;&gt;=&lt;/span&gt;&lt;span style=&quot;color: #cccccc;&quot;&gt; &lt;/span&gt;&lt;span style=&quot;color: #dcdcaa;&quot;&gt;Field&lt;/span&gt;&lt;span style=&quot;color: #cccccc;&quot;&gt;(..., &lt;/span&gt;&lt;span style=&quot;color: #9cdcfe;&quot;&gt;description&lt;/span&gt;&lt;span style=&quot;color: #d4d4d4;&quot;&gt;=&lt;/span&gt;&lt;span style=&quot;color: #ce9178;&quot;&gt;&quot;Anschreiben base64&quot;&lt;/span&gt;&lt;span style=&quot;color: #cccccc;&quot;&gt;,&lt;/span&gt;&lt;span style=&quot;color: #9cdcfe;&quot;&gt;min_length&lt;/span&gt;&lt;span style=&quot;color: #d4d4d4;&quot;&gt;=&lt;/span&gt;&lt;span style=&quot;color: #b5cea8;&quot;&gt;1&lt;/span&gt;&lt;span style=&quot;color: #cccccc;&quot;&gt;)&lt;/span&gt;&lt;/div&gt;&lt;div&gt;&lt;span style=&quot;color: #cccccc;&quot;&gt;    &lt;/span&gt;&lt;span style=&quot;color: #9cdcfe;&quot;&gt;mandant&lt;/span&gt;&lt;span style=&quot;color: #cccccc;&quot;&gt;: &lt;/span&gt;&lt;span style=&quot;color: #4ec9b0;&quot;&gt;str&lt;/span&gt;&lt;span style=&quot;color: #cccccc;&quot;&gt; &lt;/span&gt;&lt;span style=&quot;color: #d4d4d4;&quot;&gt;=&lt;/span&gt;&lt;span style=&quot;color: #cccccc;&quot;&gt;  &lt;/span&gt;&lt;span style=&quot;color: #dcdcaa;&quot;&gt;Field&lt;/span&gt;&lt;span style=&quot;color: #cccccc;&quot;&gt;(..., &lt;/span&gt;&lt;span style=&quot;color: #9cdcfe;&quot;&gt;description&lt;/span&gt;&lt;span style=&quot;color: #d4d4d4;&quot;&gt;=&lt;/span&gt;&lt;span style=&quot;color: #ce9178;&quot;&gt;&quot;cutomer ID&quot;&lt;/span&gt;&lt;span style=&quot;color: #cccccc;&quot;&gt;,&lt;/span&gt;&lt;span style=&quot;color: #9cdcfe;&quot;&gt;min_length&lt;/span&gt;&lt;span style=&quot;color: #d4d4d4;&quot;&gt;=&lt;/span&gt;&lt;span style=&quot;color: #b5cea8;&quot;&gt;1&lt;/span&gt;&lt;span style=&quot;color: #cccccc;&quot;&gt;)&lt;/span&gt;&lt;/div&gt;&lt;div&gt;&lt;span style=&quot;color: #cccccc;&quot;&gt;    &lt;/span&gt;&lt;span style=&quot;color: #9cdcfe;&quot;&gt;color&lt;/span&gt;&lt;span style=&quot;color: #cccccc;&quot;&gt;:  &lt;/span&gt;&lt;span style=&quot;color: #4ec9b0;&quot;&gt;bool&lt;/span&gt;&lt;span style=&quot;color: #cccccc;&quot;&gt; &lt;/span&gt;&lt;span style=&quot;color: #d4d4d4;&quot;&gt;=&lt;/span&gt;&lt;span style=&quot;color: #cccccc;&quot;&gt; &lt;/span&gt;&lt;span style=&quot;color: #dcdcaa;&quot;&gt;Field&lt;/span&gt;&lt;span style=&quot;color: #cccccc;&quot;&gt;(...,&lt;/span&gt;&lt;span style=&quot;color: #9cdcfe;&quot;&gt;description&lt;/span&gt;&lt;span style=&quot;color: #d4d4d4;&quot;&gt;=&lt;/span&gt;&lt;span style=&quot;color: #ce9178;&quot;&gt;&quot;Druck: Farbig oder SW, true = farbig&quot;&lt;/span&gt;&lt;span style=&quot;color: #cccccc;&quot;&gt;)&lt;/span&gt;&lt;/div&gt;&lt;div&gt;&lt;span style=&quot;color: #cccccc;&quot;&gt;    &lt;/span&gt;&lt;span style=&quot;color: #9cdcfe;&quot;&gt;duplex&lt;/span&gt;&lt;span style=&quot;color: #cccccc;&quot;&gt;: &lt;/span&gt;&lt;span style=&quot;color: #4ec9b0;&quot;&gt;bool&lt;/span&gt;&lt;span style=&quot;color: #cccccc;&quot;&gt; &lt;/span&gt;&lt;span style=&quot;color: #d4d4d4;&quot;&gt;=&lt;/span&gt;&lt;span style=&quot;color: #cccccc;&quot;&gt; &lt;/span&gt;&lt;span style=&quot;color: #dcdcaa;&quot;&gt;Field&lt;/span&gt;&lt;span style=&quot;color: #cccccc;&quot;&gt;(...,&lt;/span&gt;&lt;span style=&quot;color: #9cdcfe;&quot;&gt;description&lt;/span&gt;&lt;span style=&quot;color: #d4d4d4;&quot;&gt;=&lt;/span&gt;&lt;span style=&quot;color: #ce9178;&quot;&gt;&quot;Druck: Duplex oder simplex, true = duplex&quot;&lt;/span&gt;&lt;span style=&quot;color: #cccccc;&quot;&gt;)&lt;/span&gt;&lt;/div&gt;&lt;div&gt;&lt;span style=&quot;color: #cccccc;&quot;&gt;    &lt;/span&gt;&lt;span style=&quot;color: #9cdcfe;&quot;&gt;externalDocId&lt;/span&gt;&lt;span style=&quot;color: #cccccc;&quot;&gt;: &lt;/span&gt;&lt;span style=&quot;color: #4ec9b0;&quot;&gt;Optional&lt;/span&gt;&lt;span style=&quot;color: #cccccc;&quot;&gt;[&lt;/span&gt;&lt;span style=&quot;color: #4ec9b0;&quot;&gt;str&lt;/span&gt;&lt;span style=&quot;color: #cccccc;&quot;&gt;] &lt;/span&gt;&lt;span style=&quot;color: #d4d4d4;&quot;&gt;=&lt;/span&gt;&lt;span style=&quot;color: #cccccc;&quot;&gt; &lt;/span&gt;&lt;span style=&quot;color: #dcdcaa;&quot;&gt;Field&lt;/span&gt;&lt;span style=&quot;color: #cccccc;&quot;&gt;(&lt;/span&gt;&lt;span style=&quot;color: #9cdcfe;&quot;&gt;description&lt;/span&gt;&lt;span style=&quot;color: #d4d4d4;&quot;&gt;=&lt;/span&gt;&lt;span style=&quot;color: #ce9178;&quot;&gt;&quot;job ID created by Customer (not always valid)&quot;&lt;/span&gt;&lt;span style=&quot;color: #cccccc;&quot;&gt;,&lt;/span&gt;&lt;span style=&quot;color: #9cdcfe;&quot;&gt;default&lt;/span&gt;&lt;span style=&quot;color: #d4d4d4;&quot;&gt;=&lt;/span&gt;&lt;span style=&quot;color: #569cd6;&quot;&gt;None&lt;/span&gt;&lt;span style=&quot;color: #cccccc;&quot;&gt;)&lt;/span&gt;&lt;/div&gt;&lt;div&gt;&lt;span style=&quot;color: #cccccc;&quot;&gt;    &lt;/span&gt;&lt;span style=&quot;color: #9cdcfe;&quot;&gt;internalDocId&lt;/span&gt;&lt;span style=&quot;color: #cccccc;&quot;&gt;: &lt;/span&gt;&lt;span style=&quot;color: #4ec9b0;&quot;&gt;Optional&lt;/span&gt;&lt;span style=&quot;color: #cccccc;&quot;&gt;[&lt;/span&gt;&lt;span style=&quot;color: #4ec9b0;&quot;&gt;str&lt;/span&gt;&lt;span style=&quot;color: #cccccc;&quot;&gt;] &lt;/span&gt;&lt;span style=&quot;color: #d4d4d4;&quot;&gt;=&lt;/span&gt;&lt;span style=&quot;color: #cccccc;&quot;&gt; &lt;/span&gt;&lt;span style=&quot;color: #dcdcaa;&quot;&gt;Field&lt;/span&gt;&lt;span style=&quot;color: #cccccc;&quot;&gt;(&lt;/span&gt;&lt;span style=&quot;color: #9cdcfe;&quot;&gt;description&lt;/span&gt;&lt;span style=&quot;color: #d4d4d4;&quot;&gt;=&lt;/span&gt;&lt;span style=&quot;color: #ce9178;&quot;&gt;&quot;job ID created internally, matches externalDocId if valid, otherwise UUID&quot;&lt;/span&gt;&lt;span style=&quot;color: #cccccc;&quot;&gt;,&lt;/span&gt;&lt;span style=&quot;color: #9cdcfe;&quot;&gt;default&lt;/span&gt;&lt;span style=&quot;color: #d4d4d4;&quot;&gt;=&lt;/span&gt;&lt;span style=&quot;color: #569cd6;&quot;&gt;None&lt;/span&gt;&lt;span style=&quot;color: #cccccc;&quot;&gt;)&lt;/span&gt;&lt;/div&gt;&lt;div&gt;&lt;span style=&quot;color: #cccccc;&quot;&gt;    &lt;/span&gt;&lt;span style=&quot;color: #9cdcfe;&quot;&gt;title&lt;/span&gt;&lt;span style=&quot;color: #cccccc;&quot;&gt;:  &lt;/span&gt;&lt;span style=&quot;color: #4ec9b0;&quot;&gt;Optional&lt;/span&gt;&lt;span style=&quot;color: #cccccc;&quot;&gt;[&lt;/span&gt;&lt;span style=&quot;color: #4ec9b0;&quot;&gt;str&lt;/span&gt;&lt;span style=&quot;color: #cccccc;&quot;&gt;] &lt;/span&gt;&lt;span style=&quot;color: #d4d4d4;&quot;&gt;=&lt;/span&gt;&lt;span style=&quot;color: #cccccc;&quot;&gt; &lt;/span&gt;&lt;span style=&quot;color: #dcdcaa;&quot;&gt;Field&lt;/span&gt;&lt;span style=&quot;color: #cccccc;&quot;&gt;(&lt;/span&gt;&lt;span style=&quot;color: #9cdcfe;&quot;&gt;description&lt;/span&gt;&lt;span style=&quot;color: #d4d4d4;&quot;&gt;=&lt;/span&gt;&lt;span style=&quot;color: #ce9178;&quot;&gt;&quot;Titel epostbox UI&quot;&lt;/span&gt;&lt;span style=&quot;color: #cccccc;&quot;&gt;,&lt;/span&gt;&lt;span style=&quot;color: #9cdcfe;&quot;&gt;default&lt;/span&gt;&lt;span style=&quot;color: #d4d4d4;&quot;&gt;=&lt;/span&gt;&lt;span style=&quot;color: #569cd6;&quot;&gt;None&lt;/span&gt;&lt;span style=&quot;color: #cccccc;&quot;&gt;)&lt;/span&gt;&lt;/div&gt;&lt;div&gt;&lt;span style=&quot;color: #cccccc;&quot;&gt;    &lt;/span&gt;&lt;span style=&quot;color: #9cdcfe;&quot;&gt;addressWindow&lt;/span&gt;&lt;span style=&quot;color: #cccccc;&quot;&gt;:  &lt;/span&gt;&lt;span style=&quot;color: #4ec9b0;&quot;&gt;Optional&lt;/span&gt;&lt;span style=&quot;color: #cccccc;&quot;&gt;[&lt;/span&gt;&lt;span style=&quot;color: #4ec9b0;&quot;&gt;str&lt;/span&gt;&lt;span style=&quot;color: #cccccc;&quot;&gt;] &lt;/span&gt;&lt;span style=&quot;color: #d4d4d4;&quot;&gt;=&lt;/span&gt;&lt;span style=&quot;color: #cccccc;&quot;&gt; &lt;/span&gt;&lt;span style=&quot;color: #dcdcaa;&quot;&gt;Field&lt;/span&gt;&lt;span style=&quot;color: #cccccc;&quot;&gt;( &lt;/span&gt;&lt;span style=&quot;color: #9cdcfe;&quot;&gt;description&lt;/span&gt;&lt;span style=&quot;color: #d4d4d4;&quot;&gt;=&lt;/span&gt;&lt;span style=&quot;color: #ce9178;&quot;&gt;&quot;Brieftyp A oder B, bei uns immer B&quot;&lt;/span&gt;&lt;span style=&quot;color: #cccccc;&quot;&gt;,&lt;/span&gt;&lt;span style=&quot;color: #9cdcfe;&quot;&gt;default&lt;/span&gt;&lt;span style=&quot;color: #d4d4d4;&quot;&gt;=&lt;/span&gt;&lt;span style=&quot;color: #ce9178;&quot;&gt;&quot;B&quot;&lt;/span&gt;&lt;span style=&quot;color: #cccccc;&quot;&gt;)&lt;/span&gt;&lt;/div&gt;&lt;div&gt;&lt;span style=&quot;color: #cccccc;&quot;&gt;    &lt;/span&gt;&lt;span style=&quot;color: #9cdcfe;&quot;&gt;registeredMail&lt;/span&gt;&lt;span style=&quot;color: #cccccc;&quot;&gt;:  &lt;/span&gt;&lt;span style=&quot;color: #4ec9b0;&quot;&gt;Optional&lt;/span&gt;&lt;span style=&quot;color: #cccccc;&quot;&gt;[&lt;/span&gt;&lt;span style=&quot;color: #4ec9b0;&quot;&gt;str&lt;/span&gt;&lt;span style=&quot;color: #cccccc;&quot;&gt;]&lt;/span&gt;&lt;span style=&quot;color: #d4d4d4;&quot;&gt;=&lt;/span&gt;&lt;span style=&quot;color: #cccccc;&quot;&gt; &lt;/span&gt;&lt;span style=&quot;color: #dcdcaa;&quot;&gt;Field&lt;/span&gt;&lt;span style=&quot;color: #cccccc;&quot;&gt;( &lt;/span&gt;&lt;span style=&quot;color: #9cdcfe;&quot;&gt;description&lt;/span&gt;&lt;span style=&quot;color: #d4d4d4;&quot;&gt;=&lt;/span&gt;&lt;span style=&quot;color: #ce9178;&quot;&gt;&quot;Versandart, DPAG-Zusatzleistung&quot;&lt;/span&gt;&lt;span style=&quot;color: #cccccc;&quot;&gt;,&lt;/span&gt;&lt;span style=&quot;color: #9cdcfe;&quot;&gt;default&lt;/span&gt;&lt;span style=&quot;color: #d4d4d4;&quot;&gt;=&lt;/span&gt;&lt;span style=&quot;color: #569cd6;&quot;&gt;None&lt;/span&gt;&lt;span style=&quot;color: #cccccc;&quot;&gt;)&lt;/span&gt;&lt;/div&gt;&lt;div&gt;&lt;span style=&quot;color: #cccccc;&quot;&gt;    &lt;/span&gt;&lt;span style=&quot;color: #9cdcfe;&quot;&gt;splitStatic&lt;/span&gt;&lt;span style=&quot;color: #cccccc;&quot;&gt;: &lt;/span&gt;&lt;span style=&quot;color: #4ec9b0;&quot;&gt;Optional&lt;/span&gt;&lt;span style=&quot;color: #cccccc;&quot;&gt;[&lt;/span&gt;&lt;span style=&quot;color: #4ec9b0;&quot;&gt;int&lt;/span&gt;&lt;span style=&quot;color: #cccccc;&quot;&gt;] &lt;/span&gt;&lt;span style=&quot;color: #d4d4d4;&quot;&gt;=&lt;/span&gt;&lt;span style=&quot;color: #cccccc;&quot;&gt;  &lt;/span&gt;&lt;span style=&quot;color: #dcdcaa;&quot;&gt;Field&lt;/span&gt;&lt;span style=&quot;color: #cccccc;&quot;&gt;(&lt;/span&gt;&lt;span style=&quot;color: #9cdcfe;&quot;&gt;description&lt;/span&gt;&lt;span style=&quot;color: #d4d4d4;&quot;&gt;=&lt;/span&gt;&lt;span style=&quot;color: #569cd6;&quot;&gt;r&lt;/span&gt;&lt;span style=&quot;color: #d16969;&quot;&gt;&quot;Trennung anhand statischer Seitenzahl: Je {n} Seiten&quot;&lt;/span&gt;&lt;span style=&quot;color: #cccccc;&quot;&gt;,&lt;/span&gt;&lt;span style=&quot;color: #9cdcfe;&quot;&gt;le&lt;/span&gt;&lt;span style=&quot;color: #d4d4d4;&quot;&gt;=&lt;/span&gt;&lt;span style=&quot;color: #b5cea8;&quot;&gt;200&lt;/span&gt;&lt;span style=&quot;color: #cccccc;&quot;&gt;,&lt;/span&gt;&lt;span style=&quot;color: #9cdcfe;&quot;&gt;ge&lt;/span&gt;&lt;span style=&quot;color: #d4d4d4;&quot;&gt;=&lt;/span&gt;&lt;span style=&quot;color: #b5cea8;&quot;&gt;1&lt;/span&gt;&lt;span style=&quot;color: #cccccc;&quot;&gt;,&lt;/span&gt;&lt;span style=&quot;color: #9cdcfe;&quot;&gt;default&lt;/span&gt;&lt;span style=&quot;color: #cccccc;&quot;&gt; &lt;/span&gt;&lt;span style=&quot;color: #d4d4d4;&quot;&gt;=&lt;/span&gt;&lt;span style=&quot;color: #cccccc;&quot;&gt; &lt;/span&gt;&lt;span style=&quot;color: #569cd6;&quot;&gt;None&lt;/span&gt;&lt;span style=&quot;color: #cccccc;&quot;&gt;)&lt;/span&gt;&lt;/div&gt;&lt;div&gt;&lt;span style=&quot;color: #cccccc;&quot;&gt;    &lt;/span&gt;&lt;span style=&quot;color: #9cdcfe;&quot;&gt;splitAtStart&lt;/span&gt;&lt;span style=&quot;color: #cccccc;&quot;&gt;: &lt;/span&gt;&lt;span style=&quot;color: #4ec9b0;&quot;&gt;Optional&lt;/span&gt;&lt;span style=&quot;color: #cccccc;&quot;&gt;[&lt;/span&gt;&lt;span style=&quot;color: #4ec9b0;&quot;&gt;str&lt;/span&gt;&lt;span style=&quot;color: #cccccc;&quot;&gt;] &lt;/span&gt;&lt;span style=&quot;color: #d4d4d4;&quot;&gt;=&lt;/span&gt;&lt;span style=&quot;color: #cccccc;&quot;&gt;  &lt;/span&gt;&lt;span style=&quot;color: #dcdcaa;&quot;&gt;Field&lt;/span&gt;&lt;span style=&quot;color: #cccccc;&quot;&gt;( &lt;/span&gt;&lt;span style=&quot;color: #9cdcfe;&quot;&gt;description&lt;/span&gt;&lt;span style=&quot;color: #d4d4d4;&quot;&gt;=&lt;/span&gt;&lt;span style=&quot;color: #ce9178;&quot;&gt;&quot;Input = Keyword, split pdf by keyword, keyword always on first page&quot;&lt;/span&gt;&lt;span style=&quot;color: #cccccc;&quot;&gt;,&lt;/span&gt;&lt;span style=&quot;color: #9cdcfe;&quot;&gt;min_length&lt;/span&gt;&lt;span style=&quot;color: #d4d4d4;&quot;&gt;=&lt;/span&gt;&lt;span style=&quot;color: #b5cea8;&quot;&gt;5&lt;/span&gt;&lt;span style=&quot;color: #cccccc;&quot;&gt;,&lt;/span&gt;&lt;span style=&quot;color: #9cdcfe;&quot;&gt;default&lt;/span&gt;&lt;span style=&quot;color: #d4d4d4;&quot;&gt;=&lt;/span&gt;&lt;span style=&quot;color: #569cd6;&quot;&gt;None&lt;/span&gt;&lt;span style=&quot;color: #cccccc;&quot;&gt;)&lt;/span&gt;&lt;/div&gt;&lt;div&gt;&lt;span style=&quot;color: #cccccc;&quot;&gt;    &lt;/span&gt;&lt;span style=&quot;color: #9cdcfe;&quot;&gt;splitAtEnd&lt;/span&gt;&lt;span style=&quot;color: #cccccc;&quot;&gt;: &lt;/span&gt;&lt;span style=&quot;color: #4ec9b0;&quot;&gt;Optional&lt;/span&gt;&lt;span style=&quot;color: #cccccc;&quot;&gt;[&lt;/span&gt;&lt;span style=&quot;color: #4ec9b0;&quot;&gt;str&lt;/span&gt;&lt;span style=&quot;color: #cccccc;&quot;&gt;] &lt;/span&gt;&lt;span style=&quot;color: #d4d4d4;&quot;&gt;=&lt;/span&gt;&lt;span style=&quot;color: #cccccc;&quot;&gt;  &lt;/span&gt;&lt;span style=&quot;color: #dcdcaa;&quot;&gt;Field&lt;/span&gt;&lt;span style=&quot;color: #cccccc;&quot;&gt;(&lt;/span&gt;&lt;span style=&quot;color: #9cdcfe;&quot;&gt;description&lt;/span&gt;&lt;span style=&quot;color: #d4d4d4;&quot;&gt;=&lt;/span&gt;&lt;span style=&quot;color: #ce9178;&quot;&gt;&quot;Input = Keyword, split by keyword, keyword always on last page&quot;&lt;/span&gt;&lt;span style=&quot;color: #cccccc;&quot;&gt;,&lt;/span&gt;&lt;span style=&quot;color: #9cdcfe;&quot;&gt;min_length&lt;/span&gt;&lt;span style=&quot;color: #d4d4d4;&quot;&gt;=&lt;/span&gt;&lt;span style=&quot;color: #b5cea8;&quot;&gt;5&lt;/span&gt;&lt;span style=&quot;color: #cccccc;&quot;&gt;,&lt;/span&gt;&lt;span style=&quot;color: #9cdcfe;&quot;&gt;default&lt;/span&gt;&lt;span style=&quot;color: #d4d4d4;&quot;&gt;=&lt;/span&gt;&lt;span style=&quot;color: #569cd6;&quot;&gt;None&lt;/span&gt;&lt;span style=&quot;color: #cccccc;&quot;&gt;)&lt;/span&gt;&lt;/div&gt;&lt;div&gt;&lt;span style=&quot;color: #cccccc;&quot;&gt;    &lt;/span&gt;&lt;span style=&quot;color: #9cdcfe;&quot;&gt;numDocs&lt;/span&gt;&lt;span style=&quot;color: #cccccc;&quot;&gt;: &lt;/span&gt;&lt;span style=&quot;color: #4ec9b0;&quot;&gt;Optional&lt;/span&gt;&lt;span style=&quot;color: #cccccc;&quot;&gt;[&lt;/span&gt;&lt;span style=&quot;color: #4ec9b0;&quot;&gt;int&lt;/span&gt;&lt;span style=&quot;color: #cccccc;&quot;&gt;] &lt;/span&gt;&lt;span style=&quot;color: #d4d4d4;&quot;&gt;=&lt;/span&gt;&lt;span style=&quot;color: #cccccc;&quot;&gt; &lt;/span&gt;&lt;span style=&quot;color: #dcdcaa;&quot;&gt;Field&lt;/span&gt;&lt;span style=&quot;color: #cccccc;&quot;&gt;(&lt;/span&gt;&lt;span style=&quot;color: #9cdcfe;&quot;&gt;description&lt;/span&gt;&lt;span style=&quot;color: #d4d4d4;&quot;&gt;=&lt;/span&gt;&lt;span style=&quot;color: #ce9178;&quot;&gt;&quot;Optional check: Provides the number of expected splits&quot;&lt;/span&gt;&lt;span style=&quot;color: #cccccc;&quot;&gt;,&lt;/span&gt;&lt;span style=&quot;color: #9cdcfe;&quot;&gt;ge&lt;/span&gt;&lt;span style=&quot;color: #d4d4d4;&quot;&gt;=&lt;/span&gt;&lt;span style=&quot;color: #b5cea8;&quot;&gt;1&lt;/span&gt;&lt;span style=&quot;color: #cccccc;&quot;&gt;,&lt;/span&gt;&lt;span style=&quot;color: #9cdcfe;&quot;&gt;default&lt;/span&gt;&lt;span style=&quot;color: #d4d4d4;&quot;&gt;=&lt;/span&gt;&lt;span style=&quot;color: #569cd6;&quot;&gt;None&lt;/span&gt;&lt;span style=&quot;color: #cccccc;&quot;&gt;)&lt;/span&gt;&lt;/div&gt;&lt;div&gt;&lt;span style=&quot;color: #cccccc;&quot;&gt;    &lt;/span&gt;&lt;span style=&quot;color: #9cdcfe;&quot;&gt;attachmentsPdfBase64&lt;/span&gt;&lt;span style=&quot;color: #cccccc;&quot;&gt;: &lt;/span&gt;&lt;span style=&quot;color: #4ec9b0;&quot;&gt;Optional&lt;/span&gt;&lt;span style=&quot;color: #cccccc;&quot;&gt;[&lt;/span&gt;&lt;span style=&quot;color: #9cdcfe;&quot;&gt;List&lt;/span&gt;&lt;span style=&quot;color: #cccccc;&quot;&gt;[&lt;/span&gt;&lt;span style=&quot;color: #4ec9b0;&quot;&gt;str&lt;/span&gt;&lt;span style=&quot;color: #cccccc;&quot;&gt;]] &lt;/span&gt;&lt;span style=&quot;color: #d4d4d4;&quot;&gt;=&lt;/span&gt;&lt;span style=&quot;color: #cccccc;&quot;&gt; &lt;/span&gt;&lt;span style=&quot;color: #dcdcaa;&quot;&gt;Field&lt;/span&gt;&lt;span style=&quot;color: #cccccc;&quot;&gt;(&lt;/span&gt;&lt;span style=&quot;color: #9cdcfe;&quot;&gt;max_length&lt;/span&gt;&lt;span style=&quot;color: #cccccc;&quot;&gt; &lt;/span&gt;&lt;span style=&quot;color: #d4d4d4;&quot;&gt;=&lt;/span&gt;&lt;span style=&quot;color: #cccccc;&quot;&gt; &lt;/span&gt;&lt;span style=&quot;color: #b5cea8;&quot;&gt;199&lt;/span&gt;&lt;span style=&quot;color: #cccccc;&quot;&gt;, &lt;/span&gt;&lt;span style=&quot;color: #9cdcfe;&quot;&gt;description&lt;/span&gt;&lt;span style=&quot;color: #d4d4d4;&quot;&gt;=&lt;/span&gt;&lt;span style=&quot;color: #ce9178;&quot;&gt;&quot;List of attachments for each document. Attachments in base 64&quot;&lt;/span&gt;&lt;span style=&quot;color: #cccccc;&quot;&gt;,&lt;/span&gt;&lt;span style=&quot;color: #9cdcfe;&quot;&gt;default&lt;/span&gt;&lt;span style=&quot;color: #d4d4d4;&quot;&gt;=&lt;/span&gt;&lt;span style=&quot;color: #569cd6;&quot;&gt;None&lt;/span&gt;&lt;span style=&quot;color: #cccccc;&quot;&gt;)&lt;/span&gt;&lt;/div&gt;&lt;div&gt;&lt;span style=&quot;color: #cccccc;&quot;&gt;    &lt;/span&gt;&lt;/div&gt;&lt;/div&gt;" style="text;whiteSpace=wrap;html=1;" vertex="1" parent="1">
          <mxGeometry x="664" y="96" width="1409" height="308" as="geometry" />
        </mxCell>
        <mxCell id="_24VUgPDZVP4WbBdwgEu-53" value="" style="shape=flexArrow;endArrow=classic;startArrow=classic;html=1;rounded=0;fillColor=#241f31;" edge="1" parent="1">
          <mxGeometry width="100" height="100" relative="1" as="geometry">
            <mxPoint x="545" y="534" as="sourcePoint" />
            <mxPoint x="719" y="453" as="targetPoint" />
          </mxGeometry>
        </mxCell>
      </root>
    </mxGraphModel>
  </diagram>
</mxfile>
